 <svg version="1.0" xmlns="http://www.w3.org/2000/svg" width="700.000000pt" height="395.000000pt" viewBox="0 0 700.000000 395.000000" preserveAspectRatio="xMidYMid meet">
<metadata>
Created by potrace 1.12, written by Peter Selinger 2001-2015
</metadata>
<g transform="translate(0.000000,395.000000) scale(0.100000,-0.100000)" fill="#000000" stroke="none">
<path d="M511 3622 c-22 -42 -51 -223 -51 -321 0 -124 0 -124 135 -244 189
-168 432 -310 620 -361 124 -33 91 -42 -99 -28 -168 13 -304 39 -440 82 -49
16 -91 28 -93 26 -10 -10 168 -296 206 -331 26 -22 172 -62 306 -81 87 -13
149 -15 295 -10 102 4 205 9 230 11 l45 5 -55 -29 c-112 -61 -344 -126 -525
-147 l-59 -7 54 -50 c30 -28 102 -89 160 -135 l105 -84 95 5 c119 6 207 28
307 77 43 21 80 37 82 35 2 -2 -7 -19 -20 -37 -50 -73 -114 -141 -170 -180
-33 -23 -59 -45 -59 -48 0 -7 152 -95 258 -150 60 -32 64 -33 115 -21 70 15
150 63 209 123 l48 49 0 -43 c0 -55 -37 -135 -89 -191 -31 -34 -38 -47 -29
-54 7 -6 67 -41 133 -78 491 -280 921 -584 1177 -833 l97 -95 103 99 c246 236
621 504 1111 792 104 61 194 113 200 115 7 2 -7 25 -32 53 -56 63 -91 137 -91
193 l0 44 60 -57 c61 -58 159 -112 222 -123 29 -4 52 4 144 55 132 72 204 115
204 122 0 3 -28 26 -62 50 -33 25 -85 74 -113 110 -52 65 -85 116 -68 108 179
-88 235 -106 375 -115 l98 -6 92 71 c51 39 124 99 162 134 l70 64 -123 18
c-146 20 -325 72 -436 127 l-80 39 45 -5 c133 -13 412 -17 495 -6 129 17 300
59 328 81 43 34 228 322 215 335 -2 2 -45 -9 -94 -25 -136 -43 -272 -69 -440
-82 -190 -14 -223 -5 -99 28 190 52 424 187 611 353 149 131 144 123 144 255
0 70 -7 144 -19 201 -32 153 -26 150 -108 48 -116 -144 -238 -251 -428 -375
-335 -219 -807 -402 -1247 -484 l-97 -17 -22 -56 c-41 -104 -140 -295 -197
-381 -69 -102 -210 -251 -302 -320 -62 -46 -242 -140 -268 -140 -13 0 -17 14
-32 117 -17 121 -19 116 58 140 55 18 76 20 116 12 27 -5 50 -8 52 -7 1 2 -14
42 -33 91 l-35 87 -104 0 -104 0 -22 44 c-26 55 -31 56 -285 56 -199 0 -223
-3 -223 -26 0 -20 -108 -496 -114 -502 -3 -2 -39 12 -81 31 -271 129 -500 400
-651 772 l-32 80 -133 27 c-740 150 -1361 481 -1672 891 -32 42 -37 45 -46 29z
m3122 -1469 l52 -27 -67 -13 c-65 -14 -68 -13 -118 12 -29 15 -50 29 -47 32 8
8 67 21 100 22 15 1 51 -11 80 -26z"></path>
</g>
</svg>